<svg xmlns="http://www.w3.org/2000/svg" version="1.1" xmlns:xlink="http://www.w3.org/1999/xlink" width="1500" height="36" viewBox="0 0 1500 36"><svg xml:space="preserve" width="1500" height="36" data-version="2" data-id="lg_cCAjAm7WmTgTanY1ZS" viewBox="0 0 371 36" x="0" y="0"><rect width="100%" height="100%" fill="transparent"></rect><path d="M6.32 31.62q-1.05 0-1.63-.18-.57-.17-.57-.82 0-.25.05-.53.05-.27.2-.62.25-.55.85-.83.6-.27 1.1-.27.5 0 .9.25.7.5 1.65.87.95.38 2 .38 1.2 0 2.45-.58 1.25-.57 2.35-2.12 1.5-1.95 2.8-4.88 1.3-2.92 2.37-6.17 1.08-3.25 1.93-6.33.85-3.07 1.4-5.32-2.6.2-5.05.87-2.45.68-4.03 1.9-1.57 1.23-1.57 3.03 0 1 .55 1.62.55.63 1.27.98.73.35 1.18.6.35.2.35.35 0 .3-.45.1-.6-.15-1.53-.68-.92-.52-1.65-1.42-.72-.9-.77-2.05 0-.1-.08-.3-.07-.2-.07-.35-.1-1.9.97-3.2 1.08-1.3 2.9-2.13 1.83-.82 4.05-1.2 2.23-.37 4.48-.37l.2-.5q.1-.25.57-.43.48-.17.98-.17t.82.15q.33.15.33.4t-.25.65q1.65.15 3.02.5 1.38.35 2.33.85.35.15.82.62.48.48.48.78 0 .25-.4.25-.2 0-.5-.05t-.7-.2q-.95-.35-2.48-.5-1.52-.15-3.27-.15-.75 2.3-1.78 5.45-1.02 3.15-2.3 6.52-1.27 3.38-2.77 6.45-1.5 3.08-3.15 5.18-.5.5-.98 1-.47.5-.92.9 2.75.05 5.02-.05 2.28-.1 3.83-.15h.3q.55 0 .55.25t-.3.55q-.3.3-.5.4-.25.1-1.73.22-1.47.13-3.65.2-2.17.08-4.52.15-2.35.08-4.35.1-2 .03-3.1.03m21.45 2.05q-2 0-2-1.1 0-.8.85-1.65.65-.65 1.45-1.05.8-.4 1-.4.25 0 .27.2.03.2-.22.3-.5.3-1.13.82-.62.53-.62 1.13 0 .8.95.8 1.15 0 2.4-.68 1.25-.67 2.32-1.72 1.08-1.05 1.75-2.13.68-1.07.68-1.87 0-.65-.45-1.2-.45-.55-1.85-1.3-.95-.55-1.83-1.15-.87-.6-1.32-1.45-.4.7-1.03 1.67-.62.98-1.47 2.03-.3.3-.6.3t-.3-.25q0-.15.25-.5 1.35-1.6 2-2.95.65-1.35.9-2.05.2-1.45 1.35-2.75 1.15-1.3 2.8-2.28 1.65-.97 3.37-1.52 1.73-.55 3.08-.55t2.4.5q1.05.5 1.05 1.6 0 .6-.35 1.3-.45.95-1.5 1.7-.05.05-.15.05-.4 0-.4-.35 0-.25.25-.5.4-.35.65-.85t.25-.95q0-.9-1.05-.9-1.1 0-2.88.6-1.77.6-3.27 1.55-1.7 1.1-2.85 2.4-1.15 1.3-1.15 2.3 0 .5.32.92.33.43 1.28.98.5.3 1.4.77.9.48 1.55.88 2.05 1.25 2.05 2.65 0 1.15-1 2.32-1 1.18-2.58 2.15-1.57.98-3.32 1.58-1.75.6-3.3.6m14.65-1.85q-.4 0-.2-.35.1-.3.52-1.5.43-1.2 1.03-2.9.6-1.7 1.25-3.48.65-1.77 1.2-3.17-.35.45-1.08 1.3-.72.85-1.52 1.8-.8.95-1.5 1.65-.15.15-.2.15-.15 0-.15-.3 0-.6.3-1.1 1.1-1.4 2.12-2.63 1.03-1.22 1.88-2.32-.5-.3-.5-.75 0-.7.7-.7.3 0 .45.1.05.05.1.05t.1.1q.25-.35.42-.65.18-.3.33-.65.2-.45.82-1.73.63-1.27 1.58-3.02.95-1.75 2.17-3.63 1.23-1.87 2.65-3.5 1.43-1.62 2.95-2.62 1.53-1 3.13-1 .2 0 .4.02.2.03.4.08 1.25.25 1.75.87.5.63.5 1.48 0 .6-.23 1.27-.22.68-.62 1.33-1 1.75-2.65 3.52-1.65 1.78-3.68 3.5-2.02 1.73-4.05 3.35-2.02 1.63-3.77 3.08-1.2 2.55-1.85 4.52-.65 1.98-1 3.18.55-.7 1.65-2 1.1-1.3 2.5-2.8 1.4-1.5 2.9-2.88 1.5-1.37 2.85-2.25 1.35-.87 2.3-.87 1.2 0 1.2 1.25 0 1.2-.85 2.65t-1.4 2.45q-.7 1.45-1.13 2.77-.42 1.33-.52 2.18-.05.2-.05.37v.38q0 2 1.4 2 .75 0 2-.9t2.55-2.15q1.3-1.25 2.37-2.43 1.08-1.17 1.48-1.77.15-.15.35-.15.2 0 .3.15.1.15 0 .4-.5.85-1.55 2.12-1.05 1.28-2.35 2.55-1.3 1.28-2.55 2.18-.65.5-1.68.87-1.02.38-2.02.38-.8 0-1.55-.4t-1.1-1.5q-.15-.45-.15-1.25v-.53q0-.27.05-.57.2-1.6 1.07-3.38.88-1.77 1.63-3.17.2-.4.32-.7.13-.3.13-.5 0-.4-.35-.4t-1.1.45q-.75.45-2 1.55-1.1.95-2.33 2.47-1.22 1.53-2.4 3.13-1.17 1.6-2.05 2.75-.87 1.15-1.22 1.35-.25.15-1.15.5-.9.35-1.3.35m7.55-14.6q2-1.35 4.35-3.38 2.35-2.02 4.42-4.35 2.08-2.32 3.18-4.42.6-1.15.6-1.9 0-.85-.75-.85-.35 0-.8.17-.45.18-1.05.63-3.35 2.6-5.65 6.17-2.3 3.58-4.3 7.93"></path><path d="M78.13 31.68q-.9 0-1.6-.4-.7-.4-1.05-1.5-.05-.25-.13-.58-.07-.32-.07-.67 0-1.2.32-2.7.33-1.5.73-2.5-.2.15-.7 1-.5.85-1.25 1.97-.75 1.13-1.68 2.25-.92 1.13-2 1.85-1.07.73-2.27.73-.8 0-1.93-.45-1.12-.45-1.62-1.25t-.5-2q0-1.45.65-3.18.65-1.72 1.65-3.22.35-.5.8-1.2.45-.7.9-1.23.45-.52.65-.57.6-.2 1.4-.2.85 0 1.25.2.35.15.35.35 0 .25-.4.65-.55.5-1.5 1.5t-1.88 2.4q-.92 1.4-1.52 3.1-.5 1.35-.5 2.35 0 1.75 1.4 1.75 1.2 0 2.55-1 1.35-1 2.62-2.45 1.28-1.45 2.3-2.88 1.03-1.42 1.58-2.27.5-.7 1.12-1.8l1.23-2.15q.6-1.05.95-1.55.35 0 1.07.12.73.13 1.25.43.53.3.28.75l-.93 1.55L80.4 21q-.62 1.08-.97 1.73-1.2 2.3-1.55 4.95-.05.2-.05.37v.38q0 2 1.35 2 .75 0 2-.9t2.57-2.15q1.33-1.25 2.4-2.43 1.08-1.17 1.48-1.77.1-.15.3-.15.2 0 .32.15.13.15-.02.4-.45.85-1.53 2.12-1.07 1.28-2.37 2.55-1.3 1.28-2.55 2.18-.65.5-1.65.87-1 .38-2 .38m19.84 3.34q-1.1 0-1.8-.7t-.7-1.95q0-.7.27-1.58.28-.87.93-1.87 1.15-1.8 2.97-4.03 1.83-2.22 3.88-4.42 2.05-2.2 3.87-4.03 1.83-1.82 2.93-2.82.5-1.5.97-3.1.48-1.6.98-3.3-1.4 1.3-3.18 1.95-1.77.65-3.32.75h-.05q-.5 0-.5-.35 0-.4.6-.45 1.45-.15 3-1.13 1.55-.97 2.87-2.5 1.33-1.52 2.03-3.27.1-.3.67-.45.58-.15 1.23-.15.55 0 .97.12.43.13.33.48-.9 2.3-1.75 4.42l-1.65 4.13q2.95-2.5 5.52-4.18 2.58-1.67 4.18-1.77 2.85-.15 4.47.95 1.63 1.1 2.3 2.92.68 1.83.68 3.88 0 .5-.03.95-.02.45-.07.9-.25 2.3-1 5.25t-1.6 5.5q-.1.25-.3.87-.2.63-.05.63.05 0 .5-.65 1.25-2.05 2.42-4.03 1.18-1.97 2.53-4.07 2-3.1 4.37-6.25 2.38-3.15 4.78-5.65.95-1 1.97-1.5 1.03-.5 1.93-.5 1 0 1.67.67.68.68.68 2.08 0 .35-.08.77-.07.43-.17.93-.6 2.4-1.4 4.4-.8 2-1.6 3.92-.8 1.93-1.43 4.03-.62 2.1-.87 4.65-.05.45-.08.85-.02.4-.02.75 0 1.7.5 2.47.5.78 1.3.78.95 0 2.22-.83 1.28-.82 2.58-2.05 1.3-1.22 2.35-2.4 1.05-1.17 1.55-1.87.1-.15.3-.15.2 0 .35.15.15.15 0 .4-.65 1-1.83 2.32-1.17 1.33-2.45 2.55-1.27 1.23-2.27 1.98-.75.55-1.73.9-.97.35-1.92.35-1.1 0-2-.55-.9-.55-1.25-1.9-.15-.5-.2-1.05-.05-.55-.05-1.15 0-2.1.6-4.68.6-2.57 1.5-5.15.9-2.57 1.72-4.7.83-2.12 1.28-3.37.35-.7.35-1.3 0-1.05-.9-1.05-.75 0-1.75.85-1.45 1.25-3.18 3.25-1.72 2-3.5 4.4-1.77 2.4-3.45 4.92-1.67 2.53-3.05 4.85-1.37 2.33-2.22 4.13-.35.75-.8.75-.35 0-.68-.45-.32-.45-.5-.98-.17-.52-.07-.72.65-1.6 1.2-3.93.55-2.32.9-4.95.35-2.62.35-5.02 0-3.2-.8-5.43-.8-2.22-2.8-2.22-1.3 0-3.3 1.1-2 1.1-4.33 2.95-2.32 1.85-4.77 4.1-.45 1.1-1.33 3.2-.87 2.1-2.05 4.65-1.17 2.55-2.6 5.07-1.42 2.53-2.92 4.43-1.35 1.7-2.7 2.5t-2.5.8m.25-1.75q1.3 0 2.67-1.38 1.38-1.37 2.75-3.5 1.38-2.12 2.53-4.42t1.97-4.25q.83-1.95 1.18-2.9-1.4 1.35-2.95 2.97-1.55 1.63-3.03 3.3-1.47 1.68-2.67 3.13t-1.9 2.4q-.8 1.1-1.18 1.97-.37.88-.37 1.53 0 1.15 1 1.15"></path><path d="M166.62 31.68q-.85 0-1.58-.4-.72-.4-1.07-1.5-.15-.45-.15-1.25 0-1.1.3-2.45t.65-2.3q-.25.1-.93.87-.67.78-1.65 1.85-.97 1.08-2.15 2.15-1.17 1.08-2.42 1.78t-2.45.7q-.8 0-1.7-.48-.9-.47-1.45-1.22-.75-1-.75-2.05 0-1.35.92-2.8.93-1.45 2.4-2.83 1.48-1.37 3.15-2.5 1.68-1.12 3.2-1.9 1.53-.77 2.48-1.02 1-.3 2.25-.3.7 0 1.45.17.75.18 1.25.58.4.2.65.55.25.35.25.75t-.35.25q-.4-.6-1.08-.78-.67-.17-1.37-.17-2 0-4.4 1.3-2.4 1.3-4.3 3.05-.6.5-1.63 1.72-1.02 1.23-1.87 2.68-.85 1.45-.85 2.65 0 .65.35 1.15.2.35.65.35.7 0 1.87-.75 1.18-.75 2.43-1.83 1.25-1.07 2.27-2.07 1.03-1 1.48-1.45.25-.25.97-1.03.73-.77 1.58-1.67.85-.9 1.52-1.55.68-.65.88-.65.25 0 .82.12.58.13.98.38t.15.65q-1.3 1.9-2.08 3.97-.77 2.08-.92 3.28-.05.2-.05.37v.38q0 2 1.4 2 .75 0 2-.9t2.55-2.15q1.3-1.25 2.37-2.43 1.08-1.17 1.48-1.77.15-.15.3-.15.2 0 .35.17.15.18 0 .43-.55.9-1.6 2.15t-2.35 2.5q-1.3 1.25-2.55 2.15-.65.5-1.65.87-1 .38-2 .38"></path><path d="M181.92 31.77q-.85 0-1.5-.38-.65-.37-.9-1.42-.15-.55-.15-1.1 0-1.5.77-2.93.78-1.42 1.83-2.65 1.05-1.22 1.8-2.07.4-.4.92-1.05.53-.65.53-1.3 0-.4-.4-.78-.4-.37-1.45-.52-.6-.1-1.13-.18-.52-.07-1.07-.07-1.4 1.9-2.73 3.82-1.32 1.93-2.82 3.78-.35.35-.6.35-.3 0-.3-.3t.3-.6q2.7-3.3 4.65-7.05-.25 0-.75-.03-.5-.02-.8-.07-.35-.1-.55-.3-.2-.2-.2-.4 0-.3.25-.35.65-.2 1.4-.6.75-.4 1.4-1.05.7-.7 1.3-1.48.6-.77.95-1.17.35-.25.75-.25.25 0 .47.15.23.15.23.45 0 .35-.3.9-.45.7-.98 1.55-.52.85-.97 1.55l1.8.1q.9.05 1.85.05.5 0 .97-.03.48-.02.98-.02 1.5 0 1.5.75 0 .5-.53 1.22-.52.73-1.27 1.58-1.7 1.95-2.9 4.1-1.2 2.15-1.6 3.3-.4 1.2-.4 1.8 0 1.2.95 1.2.85 0 2.07-.85 1.23-.85 2.53-2.08 1.3-1.22 2.35-2.4 1.05-1.17 1.5-1.77.1-.15.3-.15.2 0 .35.17.15.18 0 .43-.55.85-1.6 2.12-1.05 1.28-2.35 2.53-1.3 1.25-2.55 2.15-.65.5-1.78.92-1.12.43-2.12.43"></path><path d="M193.02 32.57q-.5 0-1.18-.1-.67-.1-1.17-.25-.5-.15-.5-.25t.47-.18q.48-.07 1.68-.07 1.25 0 2.72-.63 1.48-.62 2.83-1.47t2.3-1.5q1.5-1.1 3.1-2.83 1.6-1.72 2.25-3.77.1-.35.25-.95t.15-1.2q0-.55-.2-.93-.2-.37-.75-.37-1 0-2.08.55-1.07.55-2.05 1.27-.97.73-1.67 1.38-.6.45-1.45 1.35-.85.9-1.68 2-.82 1.1-1.32 2.17-.5 1.08-.35 1.93.1.2-.13.8-.22.6-.77.6-.45 0-1.05-.85-.35-.4-.35-1.65 0-1.15.25-2.5t.45-2.2q-.5.6-.88 1.27-.37.68-1.52 1.98-.2.2-.45.2-.35 0-.35-.4 0-.3.2-.5 1.8-2.3 3.02-3.93 1.23-1.62 1.53-2.32.4-1.05 1.07-2.7.68-1.65 1.53-3.53.85-1.87 1.75-3.65.9-1.77 1.75-3.07.75-1.15 1.75-2.33 1-1.17 2.25-1.95 1.25-.77 2.7-.77.55 0 1.2.15.05 0 .25.1l.5.15q.1.05.15.05.05 0 .1.05 1.4.85 1.4 2.35 0 1.2-.8 2.7-.7 1.4-2.28 3.22-1.57 1.83-3.6 3.7-2.02 1.88-4.15 3.6-2.12 1.73-3.87 2.93-.5.95-.9 2.2-.4 1.25-.65 2.5 1-1.45 2.25-2.83 1.25-1.37 2.2-2.17 1.55-1.3 3.02-2.08 1.48-.77 2.73-.77.6 0 1.47.4.88.4 1.6 1.02.73.63.83 1.33 0 .15.02.27.03.13.03.28 0 1.35-.75 2.75t-1.88 2.65q-1.12 1.25-2.35 2.25-1.22 1-2.17 1.65-1.9 1.25-4.03 2.07-2.12.83-4.42.83m3.55-14.35q2.3-1.5 4.6-3.55t4.27-4.3q1.98-2.25 3.18-4.2.75-1.2.75-2.35 0-.55-.23-.93-.22-.37-.72-.37-.35 0-.83.2-.47.2-1.02.7-2.1 1.6-3.9 4-1.8 2.4-3.3 5.17-1.5 2.78-2.8 5.63m18.1 13.7q-2.25 0-3.9-1.05t-1.65-3.2q0-1.15.7-2.8.5-1.15 1.85-2.65t3.15-2.93q1.8-1.42 3.65-2.35 1.85-.92 3.35-.92.55 0 1 .15.85.3 1.17.95.33.65.33 1.35 0 .65-.2 1.25t-.5 1.05q-.9 1.35-2.58 2.4-1.67 1.05-3.4 1.65-1.72.6-2.82.7h-.1q-.65 0-.65-.4 0-.25.4-.25 1.2-.1 3.02-1.13 1.83-1.02 3.23-2.12.6-.5 1.42-1.4.83-.9.83-1.75 0-.9-.85-.9-.45 0-.93.2-.47.2-.77.3-1.45.7-3.2 2.17-1.75 1.48-3.18 3.3-1.42 1.83-1.97 3.68-.15.4-.2.77-.05.38-.05.73 0 1.2.77 1.7.78.5 1.88.5 1.65 0 3.4-.73 1.75-.72 3.4-1.87 1.65-1.15 3.02-2.48 1.38-1.32 2.33-2.57.15-.2.35-.23.2-.02.25.08.2.05.2.27 0 .23-.1.43-1.4 1.95-3.38 3.8-1.97 1.85-4.35 3.07-2.37 1.23-4.92 1.23"></path><path d="M229.27 31.68q-2.1 0-2.93-1.05-.82-1.05-.82-2.6 0-1.45.67-3.65.68-2.2 1.78-4.75t2.37-5.08q1.28-2.52 2.55-4.65 1.28-2.12 2.23-3.42.95-1.25 2.05-2.5 1.1-1.25 2.45-2.1 1.35-.85 3.05-.85 1.15 0 1.97.62.83.63.83 1.88 0 .5-.18 1.15-.17.65-.57 1.35-3.05 5.3-7.28 9.8-4.22 4.5-8.92 8.35-.2.75-.38 1.35l-.27.95q-.05.25-.05.52v.53q0 1.2.4 2.1.4.9 1.35.9.9 0 2.22-.88 1.33-.87 2.68-2.15 1.35-1.27 2.45-2.47 1.1-1.2 1.55-1.85.15-.15.3-.15.2 0 .32.2.13.2-.02.5-.5.85-1.6 2.1t-2.45 2.52q-1.35 1.28-2.6 2.23-1.55 1.1-3.15 1.1m-.05-9.5q1.9-1.3 3.95-3.38 2.05-2.07 4.02-4.52 1.98-2.45 3.6-4.85 1.63-2.4 2.63-4.35.3-.55.42-.98.13-.42.13-.77 0-.95-.8-.95-.7 0-1.75.75-2.7 2.1-5 5.37-2.3 3.28-4.1 6.88-1.8 3.6-3.1 6.8m30.2 10.6q-.35.05-.7.05h-.7q-3.15 0-5.23-1.03-2.07-1.02-3.1-2.65-1.02-1.62-1.02-3.42 0-2.25 1.52-4.4 1.53-2.15 4.43-3.25 1.7-.65 3.27-.8 1.58-.15 2.93-.18 1.35-.02 2.25-.12-1.2-1.05-2.45-2.58-1.25-1.52-2.1-3.32-.85-1.8-.85-3.55 0-.8.2-1.55t.7-1.4q.55-.75 1.72-1.28 1.18-.52 2.6-.82 1.43-.3 2.63-.3 1.55 0 3.07.75 1.53.75 2.48 1.9.4-.5.9-.9t1.05-.45q.1-.05.3-.05.4 0 .67.17.28.18.28.48 0 .25-.3.5-.2.3-.73.65-.52.35-1.07.9-.7.65-1.25 1.47-.55.83-.55 1.68 0 .5.3.95.05.05.05.15 0 .25-.3.25-.25 0-.5-.25-.25-.35-.25-1.5 0-.7.15-1.48.15-.77.5-1.42.05-.05.07-.13.03-.07.08-.12-.8-.9-2.23-1.65-1.42-.75-2.92-.75-.55 0-1.1.15-1.7.35-2.35 1.6-.65 1.25-.65 2.85 0 1.45.42 3.05.43 1.6 1.08 2.95.65 1.35 1.3 2.2.6.8.6 1.15 0 .4-.9.55-2.3.25-4.48 1.05-2.17.8-3.47 1.45-2.3 1.15-3.45 2.8-1.15 1.65-1.15 3.25 0 2.15 1.9 3.77 1.9 1.63 5.4 1.63h.7q.35 0 .7-.05 3.05-.3 5.82-1.45 2.78-1.15 4.93-3.33 2.15-2.17 3.15-5.57.25-.7.32-1.45.08-.75.08-1.4 0-.7-.08-1.25-.07-.55-.22-.8-1.45.85-3.03 1.67-1.57.83-2.87 1.68-.7.4-1.88 1.47-1.17 1.08-2.07 2.33-.9 1.25-.9 2.3 0 .75.6 1.2.4.3.4.6 0 .15-.25.15-.2 0-.4-.1-.65-.2-.98-1.05-.32-.85-.32-1.95 0-1.55.6-2.75.55-1.05 1.57-1.83 1.03-.77 2.48-1.62 1.8-1.05 3.85-2.05 2.05-1 3.85-1.93 1.8-.92 2.95-1.85 1.15-.92 1.15-1.87v-.3q0-.15-.1-.3 0-.05-.03-.08-.02-.02-.02-.07 0-.2.15-.2.25 0 .45.35.2.45.2 1 0 1.35-1.35 2.55-1.35 1.2-3.35 2.35.55.6 1.2 1.85.65 1.25.65 2.55v.37q0 .18-.05.38-.5 2.9-2.28 4.97-1.77 2.08-4.27 3.45-2.5 1.38-5.23 2.1-2.72.73-5.17.93m37.6-16.31q-.75-.2-1.7-.83-.95-.62-1.65-1.6-.7-.97-.7-2.17 0-.55.2-1.1 0-.05.02-.35.03-.3.08-.5.55-2.5 2.55-4.13 2-1.62 4.9-2.52 2.9-.9 6.05-1.1.6-.05 1.2-.05h1.2q3.5 0 6.95.45t6.27.87q2.83.43 4.48.48 1.4-1.45 2.05-1.6.15-.05.45-.05.55 0 1 .27.45.28.45.78 0 .45-.4.85-.35.35-1.1.85-.75.5-1.45 1.25-1 1-1.8 2.25t-.8 2.4q0 .85.4 1.45.1.1.1.2 0 .4-.4.4-.35 0-.75-.4-.4-.5-.4-2.15 0-1 .2-2.15t.7-2.1q.2-.35.57-.83.38-.47.58-.72-3.6-.05-7.3-.4-3.7-.35-7.3-.35-1.7 0-3.8.22-2.1.23-4.3.73-2.2.5-4.1 1.42-1.9.93-3.25 2.28-1.35 1.35-1.75 3.25-.05.2-.08.35-.02.15-.02.3 0 .95.57 1.6.58.65 1.33 1.07.75.43 1.15.78.35.2.35.4t-.23.25q-.22.05-.52-.05m4.95 16.05q-.15 0-.6-.1-.45-.1-.85-.25-.4-.15-.45-.35-.15-.95.47-2.73.63-1.77 1.65-3.92 1.03-2.15 2.15-4.3 1.13-2.15 2.08-3.88.95-1.72 1.4-2.62.4-.85.4-1.4 0-.25-.03-.38-.02-.12-.07-.22.1-.6.75-1.6t1.6-2q.95-1 2.02-1.68 1.08-.67 2.08-.67.3 0 1.05.22.75.23 1.35.73.6.5.5 1.3-.35-.25-.6-.25-1.15 0-2.5 1.1t-2.78 2.95q-1.42 1.85-2.8 4.05-1.37 2.2-2.57 4.42-1.2 2.23-2.1 4.1-.9 1.88-1.4 3.03-.2.5-.3.9-.1.4-.1.65 0 .7.5.7.35 0 .75-.28.4-.27.75-.67.55-.65 1-1.23.45-.57.8-.47.05.05.05.15 0 .3-.3.7-.3.4-.35.45-.4.5-.98 1.35-.57.85-1.22 1.52-.65.68-1.35.68"></path><path d="M319.22 13.78q-.65 0-1.35-.13-.7-.12-.7-.92 0-.15.67-.7l1.4-1.13q.73-.57.88-.67.85-.7 1.05-.7.25 0 0 .65t-.25 1.15q0 .25-.3.85t-.7 1.1q-.4.5-.7.5m-5.45 17.9q-.9 0-1.63-.4-.72-.4-1.07-1.5-.05-.15-.08-.3-.02-.15-.02-.35 0-1 .45-2.5t1.1-2.9q-.3.4-.7.97-.4.58-1.15 1.48-.2.2-.45.2-.35 0-.35-.4 0-.3.2-.5 1.3-1.65 2.32-2.95 1.03-1.3 1.53-2.2 0-.05-.03-.08-.02-.02-.02-.07 0-.15.15-.45.4-1.2.82-2.03.43-.82.93-.92.1 0 .2-.03.1-.02.2-.02.55 0 1 .25.45.25.45.75 0 .45-.33 1.1-.32.65-.82 1.6-1.1 2.3-1.98 4.17-.87 1.88-.97 3.08-.05.2-.05.37v.38q0 2 1.3 2 .8 0 2.05-.88 1.25-.87 2.55-2.15 1.3-1.27 2.37-2.45 1.08-1.17 1.48-1.77.15-.15.3-.15.2 0 .32.15.13.15.03.4-.45.85-1.53 2.12-1.07 1.28-2.4 2.55-1.32 1.28-2.57 2.18-.65.5-1.63.87-.97.38-1.97.38"></path><path d="M325.83 31.68q-2.1 0-2.93-1.05-.82-1.05-.82-2.6 0-1.45.67-3.65.68-2.2 1.78-4.75t2.37-5.08q1.28-2.52 2.55-4.65 1.28-2.12 2.23-3.42.95-1.25 2.05-2.5 1.1-1.25 2.45-2.1 1.35-.85 3.05-.85 1.15 0 1.97.62.83.63.83 1.88 0 .5-.18 1.15-.17.65-.57 1.35-3.05 5.3-7.28 9.8-4.22 4.5-8.92 8.35-.2.75-.38 1.35l-.27.95q-.05.25-.05.52v.53q0 1.2.4 2.1.4.9 1.35.9.9 0 2.22-.88 1.33-.87 2.68-2.15 1.35-1.27 2.45-2.47 1.1-1.2 1.55-1.85.15-.15.3-.15.2 0 .32.2.13.2-.02.5-.5.85-1.6 2.1t-2.45 2.52q-1.35 1.28-2.6 2.23-1.55 1.1-3.15 1.1m-.05-9.5q1.9-1.3 3.95-3.38 2.05-2.07 4.02-4.52 1.98-2.45 3.6-4.85 1.63-2.4 2.63-4.35.3-.55.42-.98.13-.42.13-.77 0-.95-.8-.95-.7 0-1.75.75-2.7 2.1-5 5.37-2.3 3.28-4.1 6.88-1.8 3.6-3.1 6.8"></path><path d="M338.87 31.92q-2.25 0-3.9-1.05t-1.65-3.2q0-1.15.7-2.8.5-1.15 1.85-2.65t3.15-2.93q1.8-1.42 3.65-2.35 1.85-.92 3.35-.92.55 0 1 .15.85.3 1.17.95.33.65.33 1.35 0 .65-.2 1.25t-.5 1.05q-.9 1.35-2.58 2.4-1.67 1.05-3.4 1.65-1.72.6-2.82.7h-.1q-.65 0-.65-.4 0-.25.4-.25 1.2-.1 3.02-1.13 1.83-1.02 3.23-2.12.6-.5 1.42-1.4.83-.9.83-1.75 0-.9-.85-.9-.45 0-.93.2-.47.2-.77.3-1.45.7-3.2 2.17-1.75 1.48-3.18 3.3-1.42 1.83-1.97 3.68-.15.4-.2.77-.05.38-.05.73 0 1.2.77 1.7.78.5 1.88.5 1.65 0 3.4-.73 1.75-.72 3.4-1.87 1.65-1.15 3.02-2.48 1.38-1.32 2.33-2.57.15-.2.35-.23.2-.02.25.08.2.05.2.27 0 .23-.1.43-1.4 1.95-3.38 3.8-1.97 1.85-4.35 3.07-2.37 1.23-4.92 1.23"></path><path d="M350.82 33.67q-2 0-2-1.1 0-.8.85-1.65.65-.65 1.45-1.05.8-.4 1-.4.25 0 .27.2.03.2-.22.3-.5.3-1.13.82-.62.53-.62 1.13 0 .8.95.8 1.15 0 2.4-.68 1.25-.67 2.32-1.72 1.08-1.05 1.75-2.13.68-1.07.68-1.87 0-.65-.45-1.2-.45-.55-1.85-1.3-.95-.55-1.83-1.15-.87-.6-1.32-1.45-.4.7-1.03 1.67-.62.98-1.47 2.03-.3.3-.6.3t-.3-.25q0-.15.25-.5 1.35-1.6 2-2.95.65-1.35.9-2.05.2-1.45 1.35-2.75 1.15-1.3 2.8-2.28 1.65-.97 3.37-1.52 1.73-.55 3.08-.55t2.4.5q1.05.5 1.05 1.6 0 .6-.35 1.3-.45.95-1.5 1.7-.05.05-.15.05-.4 0-.4-.35 0-.25.25-.5.4-.35.65-.85t.25-.95q0-.9-1.05-.9-1.1 0-2.88.6-1.77.6-3.27 1.55-1.7 1.1-2.85 2.4-1.15 1.3-1.15 2.3 0 .5.32.92.33.43 1.28.98.5.3 1.4.77.9.48 1.55.88 2.05 1.25 2.05 2.65 0 1.15-1 2.32-1 1.18-2.58 2.15-1.57.98-3.32 1.58-1.75.6-3.3.6"></path></svg></svg>